<?xml version="1.0" encoding="utf-8"?>
<!-- Generator: Adobe Illustrator 25.0.1, SVG Export Plug-In . SVG Version: 6.00 Build 0)  -->
<svg version="1.1" id="圖層_1" xmlns="http://www.w3.org/2000/svg" xmlns:xlink="http://www.w3.org/1999/xlink" x="0px" y="0px"
	 viewBox="0 0 75 75" style="enable-background:new 0 0 75 75;" xml:space="preserve">
<style type="text/css">
	.st0{fill:#3E4658;}
	.st1{fill:#FFF102;}
</style>
<g>
	<path class="st0" d="M50,37.5c0,2.5-0.1,4.9-0.4,7.2H28.8c-0.2-2.3-0.4-4.7-0.4-7.2s0.1-4.9,0.4-7.2h20.9C49.9,32.6,50,35,50,37.5z
		 M53.3,30.3h13.9c0.6,2.3,0.9,4.7,0.9,7.2s-0.3,4.9-0.9,7.2H53.3c0.2-2.3,0.4-4.7,0.4-7.2S53.5,32.6,53.3,30.3z M66,26.7H52.8
		c-1.1-7.2-3.4-13.2-6.2-17.1C55.4,11.9,62.6,18.3,66,26.7L66,26.7z M49.2,26.7H29.3C30,22.6,31,19,32.3,16c1.2-2.7,2.5-4.6,3.8-5.8
		c1.3-1.2,2.3-1.6,3.1-1.6s1.9,0.4,3.1,1.6c1.3,1.2,2.6,3.1,3.8,5.8C47.4,18.9,48.5,22.6,49.2,26.7z M25.6,26.7H12.5
		C15.9,18.3,23,11.9,31.9,9.6C29,13.5,26.8,19.5,25.6,26.7L25.6,26.7z M11.3,30.3h13.9c-0.2,2.3-0.4,4.7-0.4,7.2s0.1,4.9,0.4,7.2
		H11.3c-0.6-2.3-0.9-4.7-0.9-7.2S10.7,32.6,11.3,30.3z M32.3,59c-1.3-2.9-2.4-6.6-3-10.7h19.9c-0.7,4.1-1.7,7.7-3,10.7
		c-1.2,2.7-2.5,4.6-3.8,5.8c-1.3,1.2-2.3,1.6-3.1,1.6s-1.9-0.4-3.1-1.6C34.8,63.6,33.5,61.6,32.3,59L32.3,59z M25.6,48.3
		c1.1,7.2,3.4,13.2,6.2,17.1c-8.8-2.3-16-8.7-19.4-17.1H25.6z M66,48.3c-3.4,8.3-10.5,14.7-19.4,17.1c2.9-3.9,5.1-9.9,6.2-17.1H66
		L66,48.3z"/>
	<path class="st1" d="M11,28.2h38c2.2,0,4,1.8,4,4v10.5c0,2.2-1.8,4-4,4H11c-2.2,0-4-1.8-4-4V32.3C6.9,30,8.7,28.2,11,28.2z"/>
	<path d="M18.3,31.7c3,0,5.3,1.9,5.3,5.8c0,3.4-1.8,5.9-5.3,5.9h-5V31.7H18.3z M18.1,41.2c1.5,0,2.9-0.9,2.9-3.5
		c0-2.4-0.8-3.9-3.4-3.9h-1.8v7.4H18.1z"/>
	<path d="M27.9,31.7l4.9,7.9l0,0v-7.9h2.4v11.7h-2.5l-4.9-7.8l0,0v7.8h-2.4V31.7H27.9z"/>
	<path d="M41.9,41.6c0.9,0,2.3-0.3,2.3-1.5c0-1.2-1.8-1.5-3.5-1.9s-3.5-1.2-3.5-3.3c0-2.4,2.3-3.5,4.4-3.5c2.4,0,4.7,1.1,4.7,3.8
		h-2.5c-0.1-1.4-1.1-1.8-2.3-1.8c-0.8,0-1.8,0.3-1.8,1.3c0,1,0.6,1,3.5,1.8c0.9,0.2,3.5,0.8,3.5,3.4c0,2.2-1.7,3.7-4.9,3.7
		c-2.6,0-5-1.2-5-4.1h2.4C39.3,41,40.5,41.6,41.9,41.6z"/>
</g>
</svg>
