<?xml version="1.0" encoding="utf-8"?>
<!-- Generator: Adobe Illustrator 25.0.1, SVG Export Plug-In . SVG Version: 6.00 Build 0)  -->
<svg version="1.1" id="圖層_1" xmlns="http://www.w3.org/2000/svg" xmlns:xlink="http://www.w3.org/1999/xlink" x="0px" y="0px"
	 viewBox="0 0 75 75" style="enable-background:new 0 0 75 75;" xml:space="preserve">
<style type="text/css">
	.st0{fill:#3E4658;}
	.st1{fill:#FFF102;}
	.st2{fill:none;stroke:#3E4658;stroke-width:3;stroke-miterlimit:10;}
</style>
<g>
	<path class="st0" d="M34.4,22l1.6-1.6v10.7c-0.1,0.9,0.6,1.6,1.5,1.7c0.9,0.1,1.6-0.6,1.7-1.5c0-0.1,0-0.2,0-0.3V20.3l1.6,1.6
		c0.3,0.3,0.7,0.5,1.1,0.5c0.9,0,1.6-0.7,1.6-1.6c0-0.4-0.2-0.8-0.5-1.1c-4.7-4.7-4.4-4.5-4.8-4.7c-0.4-0.2-0.8-0.2-1.2-0.1
		c-0.6,0.2-0.4,0.3-4.9,4.7c-0.6,0.7-0.5,1.7,0.1,2.2C32.9,22.5,33.8,22.5,34.4,22L34.4,22z"/>
	<path class="st0" d="M13.1,32.5c0,0.7,0.5,1.2,1.2,1.2c0.7,0,1.2-0.5,1.2-1.2v-1.7l5.7,5.7c0.5,0.5,1.2,0.5,1.7,0
		c0.5-0.5,0.5-1.2,0-1.7c0,0,0,0,0,0l-5.7-5.7h1.7c0.3,0,0.6-0.1,0.8-0.4c0.4-0.5,0.4-1.2-0.1-1.7c-0.2-0.2-0.5-0.3-0.8-0.3
		c-5,0-4.7,0-5,0.1c-0.3,0.1-0.5,0.3-0.7,0.6C13,27.8,13.2,27.7,13.1,32.5z"/>
	<path class="st0" d="M6.6,52.7h10.7c0.9,0,1.6-0.7,1.6-1.6s-0.7-1.6-1.6-1.6H6.6l1.6-1.6c0.6-0.6,0.6-1.6,0-2.3S6.6,45,6,45.7l0,0
		c-4.7,4.7-4.5,4.4-4.7,4.8c-0.2,0.4-0.2,0.8-0.1,1.2c0.2,0.6,0.3,0.4,4.7,4.9c0.7,0.6,1.7,0.5,2.2-0.1c0.5-0.6,0.5-1.5,0-2.1
		L6.6,52.7z"/>
	<path class="st0" d="M73.7,50.8c-0.2-0.6-0.2-0.4-4.7-4.9c-0.6-0.6-1.6-0.6-2.2,0s-0.6,1.6,0,2.2l1.6,1.6H57.7
		c-0.9-0.1-1.6,0.6-1.7,1.5c-0.1,0.9,0.6,1.6,1.5,1.7c0.1,0,0.2,0,0.3,0h10.7l-1.6,1.6c-0.3,0.3-0.5,0.7-0.5,1.1
		c0,0.9,0.7,1.6,1.6,1.6c0.4,0,0.8-0.2,1.1-0.5c4.7-4.7,4.5-4.4,4.7-4.8C73.8,51.7,73.9,51.2,73.7,50.8z"/>
	<path class="st0" d="M54,36.6l5.7-5.7v1.7c0,0.3,0.1,0.6,0.3,0.8c0.5,0.4,1.2,0.4,1.7-0.1c0.2-0.2,0.3-0.5,0.3-0.8c0-5,0-4.7-0.1-5
		c-0.1-0.3-0.3-0.5-0.6-0.7c-0.4-0.2-0.3-0.1-5.1-0.1c-0.7,0-1.2,0.5-1.2,1.2s0.5,1.2,1.2,1.2c0,0,0,0,0,0h1.7l-5.7,5.7
		c-0.5,0.5-0.5,1.2,0,1.7C52.8,37.1,53.5,37.1,54,36.6C54,36.6,54,36.6,54,36.6z"/>
	<path class="st1" d="M22.3,53.1c0,3.8,3.1,6.9,6.9,6.9h17.7c3.4,0,6.1-2.8,6.1-6.1c0-3-2.1-5.5-4.9-6c0.2-0.5,0.3-1.1,0.3-1.7
		c0-2.5-2.1-4.6-4.6-4.6c-0.9,0-1.8,0.3-2.6,0.8c-1.3-2.3-3.8-3.9-6.7-3.9c-4.2,0-7.7,3.4-7.7,7.7c0,0.1,0,0.3,0,0.4
		C24.2,47.6,22.3,50.1,22.3,53.1z"/>
	<path class="st2" d="M22.3,53.1c0,3.8,3.1,6.9,6.9,6.9h17.7c3.4,0,6.1-2.8,6.1-6.1c0-3-2.1-5.5-4.9-6c0.2-0.5,0.3-1.1,0.3-1.7
		c0-2.5-2.1-4.6-4.6-4.6c-0.9,0-1.8,0.3-2.6,0.8c-1.3-2.3-3.8-3.9-6.7-3.9c-4.2,0-7.7,3.4-7.7,7.7c0,0.1,0,0.3,0,0.4
		C24.2,47.6,22.3,50.1,22.3,53.1z"/>
</g>
</svg>
