<?xml version="1.0" encoding="utf-8"?>
<!-- Generator: Adobe Illustrator 25.0.1, SVG Export Plug-In . SVG Version: 6.00 Build 0)  -->
<svg version="1.1" id="圖層_1" xmlns="http://www.w3.org/2000/svg" xmlns:xlink="http://www.w3.org/1999/xlink" x="0px" y="0px"
	 viewBox="0 0 75 75" style="enable-background:new 0 0 75 75;" xml:space="preserve">
<style type="text/css">
	.st0{fill:#3E4658;stroke:#3E4658;stroke-width:5;stroke-miterlimit:10;}
	.st1{fill:#FFFFFF;}
	.st2{fill:#FFF102;}
</style>
<g>
	<path class="st0" d="M64.4,61H10.6c-2.8,0-5-2.2-5-5V22.8c0-2.8,2.2-5,5-5h53.9c2.8,0,5,2.2,5,5V56C69.4,58.8,67.2,61,64.4,61z"/>
	<path class="st1" d="M62.1,26.7H24.8c-1.7,0-3.1-1.4-3.1-3.1v0c0-1.7,1.4-3.1,3.1-3.1h37.3c1.7,0,3.1,1.4,3.1,3.1v0
		C65.2,25.3,63.8,26.7,62.1,26.7z"/>
</g>
<path class="st2" d="M42.9,40.9c0-3-2.4-5.4-5.4-5.4c-1,0-2,0.3-2.8,0.8c-1.5,0.9-2.5,2.5-2.5,4.2v2.3h-1c-0.6,0-1,0.4-1,1
	c0,0,0,0,0,0v6.7c0,0.8,0.6,1.4,1.4,1.4h11.9c0.8,0,1.4-0.6,1.4-1.4l0,0v-6.7c0-0.6-0.4-1-1-1c0,0,0,0,0,0h-1V40.9z M40.5,42.9h-6
	v-2.3c0-0.9,0.4-1.6,1.2-2.1c1.4-1,3.3-0.7,4.3,0.6c0.3,0.4,0.5,0.9,0.6,1.4L40.5,42.9z"/>
<path class="st1" d="M12.8,20.5h3.3c1.7,0,3.1,1.4,3.1,3.1v0c0,1.7-1.4,3.1-3.1,3.1h-3.3c-1.7,0-3.1-1.4-3.1-3.1v0
	C9.7,21.9,11.1,20.5,12.8,20.5z"/>
</svg>
