<?xml version="1.0" encoding="utf-8"?>
<!-- Generator: Adobe Illustrator 25.0.1, SVG Export Plug-In . SVG Version: 6.00 Build 0)  -->
<svg version="1.1" id="圖層_1" xmlns="http://www.w3.org/2000/svg" xmlns:xlink="http://www.w3.org/1999/xlink" x="0px" y="0px"
	 viewBox="0 0 75 75" style="enable-background:new 0 0 75 75;" xml:space="preserve">
<style type="text/css">
	.st0{fill:#3E4658;}
	.st1{fill:#FFF102;}
</style>
<g>
	<path class="st0" d="M21.6,26.4c-0.8-0.4-5.2-2.9-6-3.6c-1.6-1.6-2.8-3.5-3.4-5.7l-1.6,1.5c-0.2,0.2-0.5,0.2-0.8,0.1l-3.5-2
		c-0.1-0.1-0.1-0.2-0.1-0.3c0,0,0,0,0,0l2.5-2.3L8,13.7c-0.3-0.2-0.4-0.5-0.2-0.8c0,0,0,0,0,0l0,0c0.2-0.3,0.5-0.4,0.8-0.2
		c0,0,0,0,0,0l0.7,0.4L10,9.8c0-0.1,0.1-0.2,0.2-0.2c0,0,0,0,0.1,0l3.5,2c0.2,0.1,0.4,0.4,0.3,0.7l-0.5,2.2c2.2-0.6,4.5-0.6,6.6,0
		c1,0.4,5.5,2.8,6.2,3.2c1.8,1,2.4,5.2,1.7,6.6l-0.1,0.1C27.3,25.8,23.4,27.5,21.6,26.4z"/>
	<path class="st0" d="M5.2,39.7c0.3,0,0.5-0.1,0.6-0.4l0.8-1.9c1.3,1.6,3,2.7,4.9,3.4c1,0.3,5.5,0.7,6.3,0.8
		c1.9,0.2,4.4-2.6,4.6-4.1l0,0l0,0c0.1-1.5-1.9-4.6-3.8-4.8c-0.8-0.1-5.4-0.4-6.3-0.3c-2,0.3-3.9,1.2-5.4,2.4l-0.5-2
		c-0.1-0.3-0.3-0.4-0.5-0.5L2.2,32C2.1,32,2,32.1,2,32.2c0,0,0,0,0,0l0.7,3L2,35.2c-0.3,0-0.6,0.2-0.6,0.5c0,0.3,0.2,0.6,0.5,0.6
		c0,0,0,0,0,0l0.7,0.1l-1.2,2.8c0,0.1,0,0.2,0.1,0.2c0,0,0,0,0,0L5.2,39.7z"/>
	<path class="st0" d="M17.8,49.9c-0.7,0.3-4.4,1.9-5.2,2.4c-1.4,1.1-2.6,2.6-3.3,4.3l-1.2-1.4C8,55.1,7.7,55,7.5,55.1l-3,1.3
		c-0.1,0-0.1,0.1-0.1,0.2c0,0,0,0,0,0l1.8,2.1L5.7,59c-0.2,0.1-0.4,0.4-0.3,0.6c0,0,0,0,0,0l0,0c0.1,0.3,0.4,0.4,0.7,0.3l0.6-0.3
		l0.3,2.7c0,0.1,0.1,0.2,0.2,0.1c0,0,0,0,0,0l3-1.3c0.2-0.1,0.3-0.3,0.3-0.5l-0.2-1.8c1.7,0.7,3.6,0.9,5.4,0.6
		c0.9-0.2,4.7-1.8,5.3-2.1c1.5-0.7,2.4-4,1.9-5.2l0,0l0,0C22.3,50.9,19.4,49.2,17.8,49.9z"/>
	<path class="st0" d="M33.3,25c-3.2,0-5.8,2.6-5.8,5.8v5.8c0,3.2,2.6,5.8,5.8,5.8h34.6c3.2,0,5.8-2.6,5.8-5.8v-5.8
		c0-3.2-2.6-5.8-5.8-5.8H33.3z M58.5,31.5c1.2,0,2.2,1,2.2,2.2s-1,2.2-2.2,2.2s-2.2-1-2.2-2.2S57.3,31.5,58.5,31.5z M62.8,33.7
		c0-1.2,1-2.2,2.2-2.2s2.2,1,2.2,2.2s-1,2.2-2.2,2.2S62.8,34.9,62.8,33.7z M33.3,48.1c-3.2,0-5.8,2.6-5.8,5.8v5.8
		c0,3.2,2.6,5.8,5.8,5.8h34.6c3.2,0,5.8-2.6,5.8-5.8v-5.8c0-3.2-2.6-5.8-5.8-5.8H33.3z M58.5,54.6c1.2,0,2.2,1,2.2,2.2
		s-1,2.2-2.2,2.2s-2.2-1-2.2-2.2S57.3,54.6,58.5,54.6z M63.5,56.7c0-1.2,1-2.2,2.2-2.2s2.2,1,2.2,2.2s-1,2.2-2.2,2.2
		S63.5,57.9,63.5,56.7z"/>
	<path class="st0" d="M56.1,46.3c0.2,3.5-1.6,6.7-4.7,8.4l-6.9,3.9l-6.9-3.7c-3.1-1.6-4.9-4.8-4.8-8.3l0.1-4.5l1.4-1.2l0.1-2.8
		L33,36.4l0.1-2.8l11.1-3.8l11.2,3.5l0.1,2.8l-1.3,1.6l0.1,2.8l1.5,1.2L56.1,46.3z"/>
	<path class="st1" d="M54.6,46.4l-0.2-3.8l-1.5-1.2l-0.2-4.1l1.3-1.6l0-1.2l-9.8-3.1l-9.7,3.3l0,1.2l1.4,1.6l-0.1,4.1l-1.4,1.2
		l-0.1,3.8c-0.1,2.9,1.5,5.6,4.1,6.9l6.2,3.3l6.1-3.4C53.2,52,54.7,49.3,54.6,46.4z"/>
</g>
</svg>
