<?xml version="1.0" encoding="utf-8"?>
<!-- Generator: Adobe Illustrator 25.0.1, SVG Export Plug-In . SVG Version: 6.00 Build 0)  -->
<svg version="1.1" id="圖層_1" xmlns="http://www.w3.org/2000/svg" xmlns:xlink="http://www.w3.org/1999/xlink" x="0px" y="0px"
	 viewBox="0 0 75 75" style="enable-background:new 0 0 75 75;" xml:space="preserve">
<style type="text/css">
	.st0{fill-rule:evenodd;clip-rule:evenodd;fill:#FFF102;}
	.st1{fill-rule:evenodd;clip-rule:evenodd;fill:#3E4658;stroke:#3E4658;stroke-width:1.452;stroke-miterlimit:10;}
	.st2{fill:#3E4658;stroke:#3E4658;stroke-width:0.4501;stroke-miterlimit:10;}
	.st3{fill-rule:evenodd;clip-rule:evenodd;fill:#3E4658;stroke:#3E4658;stroke-width:0.4501;stroke-miterlimit:10;}
	.st4{fill:#3E4658;}
</style>
<g>
	<g>
		<path class="st0" d="M39.1,39.9L39.1,39.9c4,2.3,9.2,0.5,10.8-4.1c0.9-2.8,0.1-5.9-2.1-7.8c-4.3-3.7-11.1-1.6-12.2,4.3
			C34.9,35.3,36.5,38.3,39.1,39.9z"/>
		<path class="st1" d="M42.7,44.9c-6.3,0-11.3-5.2-11.3-11.5l0,0c0.1-6.3,5.3-11.4,11.7-11.3c6.1,0.1,11.1,5.3,11.1,11.3
			C54.3,39.8,49.1,45,42.7,44.9L42.7,44.9z M42.8,42c4.7,0,8.5-3.7,8.5-8.4c0,0,0,0,0,0c0-5.3-4.7-9.5-10.2-8.4
			c-3.2,0.6-5.8,3.2-6.5,6.4C33.4,37.1,37.5,41.9,42.8,42L42.8,42z"/>
		<rect x="50.4" y="36.3" transform="matrix(0.5077 -0.8615 0.8615 0.5077 -7.951 63.5131)" class="st2" width="2.3" height="4.9"/>
		<path class="st3" d="M54.3,43.6l13,7.6c1.3,0.7,2.9,0.3,3.7-1l0,0c0.7-1.3,0.3-2.9-1-3.7L57.1,39c0,0,0,0,0,0
			c-1.3-0.8-2.9-0.3-3.7,1l0,0C52.6,41.2,53.1,42.9,54.3,43.6z"/>
	</g>
	<path class="st4" d="M9.8,18.9v27.9h49.6V18.9H9.8z M3.6,18.9c0-3.4,2.8-6.2,6.2-6.2h49.6c3.4,0,6.2,2.8,6.2,6.2v27.9
		c0,3.4-2.8,6.2-6.2,6.2H9.8c-3.4,0-6.2-2.8-6.2-6.2V18.9z M16,56.1h37.2c1.7,0,3.1,1.4,3.1,3.1c0,1.7-1.4,3.1-3.1,3.1H16
		c-1.7,0-3.1-1.4-3.1-3.1C12.9,57.5,14.3,56.1,16,56.1z"/>
</g>
</svg>
