<?xml version="1.0" encoding="utf-8"?>
<!-- Generator: Adobe Illustrator 25.0.1, SVG Export Plug-In . SVG Version: 6.00 Build 0)  -->
<svg version="1.1" id="圖層_1" xmlns="http://www.w3.org/2000/svg" xmlns:xlink="http://www.w3.org/1999/xlink" x="0px" y="0px"
	 viewBox="0 0 50 50" style="enable-background:new 0 0 50 50;" xml:space="preserve">
<style type="text/css">
	.st0{fill:#C9D6DF;}
</style>
<g>
	<path class="st0" d="M17.5,27.8h-2.1v-7.1c0-0.7-0.6-1.3-1.3-1.3c-0.7,0-1.3,0.6-1.3,1.3v8.4c0,0.7,0.6,1.3,1.3,1.3h3.3
		C19.2,30.4,19.2,27.8,17.5,27.8L17.5,27.8z M17.5,27.8"/>
	<path class="st0" d="M19.5,20.8c0.4,6.4-0.9,9.6,1.3,9.6c0.7,0,1.3-0.6,1.3-1.3v-8.4C22.1,19.1,19.5,19.1,19.5,20.8L19.5,20.8z
		 M19.5,20.8"/>
	<path class="st0" d="M35.9,22c1.7,0,1.7-2.6,0-2.6h-3.3c-0.7,0-1.3,0.6-1.3,1.3v8.4c0,0.7,0.6,1.3,1.3,1.3h3.3c1.7,0,1.7-2.6,0-2.6
		h-2.1v-1.6h2.1c1.7,0,1.7-2.6,0-2.6h-2.1V22H35.9z M35.9,22"/>
	<path class="st0" d="M27.9,20.8v3.7l-2.6-4.4c-0.7-1.1-2.4-0.6-2.4,0.7v8.4c0,0.7,0.6,1.3,1.3,1.3c0.7,0,1.3-0.6,1.3-1.3v-3.7
		l2.6,4.4c0.2,0.4,0.7,0.6,1.1,0.6c0.1,0,0.2,0,0.3,0c0.6-0.2,0.9-0.7,0.9-1.2v-8.4C30.5,19.1,27.9,19.1,27.9,20.8L27.9,20.8z
		 M27.9,20.8"/>
</g>
</svg>
